<svg width="73" height="73" viewBox="0 0 73 73" fill="none" xmlns="http://www.w3.org/2000/svg">
<path d="M23.5952 60.4878C23.7958 61.1371 23.9748 61.7874 24.0424 62.4657C24.5464 67.5256 17.7996 69.5914 14.9399 65.4477C14.0539 64.1635 13.7728 62.555 13.4314 61.0621L9.55719 44.6938C9.4285 44.0687 9.61438 44.2161 9.08925 43.8614C7.78396 42.9795 7.06158 41.53 6.95588 39.9611L6.74277 39.8421C0.324477 36.1114 -0.071668 26.9435 6.01581 22.5967C7.78462 21.3337 9.72759 20.8087 11.8751 20.6925L19.2056 20.678C19.5693 20.6761 20.002 20.7117 20.3549 20.6147C25.704 19.1435 30.7583 16.6807 35.4366 13.7201L38.6086 11.6139C40.0517 10.5677 41.5038 9.45672 42.8151 8.24726C44.1849 6.98377 45.2857 5.35692 47.255 5.04542C47.5814 5.01546 47.9559 4.99955 48.274 5.08526L48.3339 5.1025C50.0286 5.57346 50.8368 6.86906 49.8563 8.40967C47.4954 12.1194 46.6807 17.4788 46.1975 21.7441L45.8406 25.6037C52.354 27.1285 52.492 36.0164 46.8663 37.8083C46.5615 37.9053 46.2538 37.9445 45.9397 37.9957C45.9379 42.2734 47.122 50.53 49.3004 54.2128C49.5893 54.7013 49.9983 55.1578 50.2399 55.6648C50.6248 56.4724 49.89 57.438 49.2795 57.9081C48.6701 58.3773 47.702 58.5121 46.9591 58.4057L46.8903 58.3955C45.0643 58.1494 44.1498 56.5815 42.9114 55.4414C42.2388 54.8221 41.477 54.2657 40.7641 53.6924L37.2399 51.0896C35.1682 49.6401 33.0243 48.2707 30.8078 47.0531L25.5774 44.44L25.7177 46.3924C25.7499 49.7257 23.5959 50.277 20.7387 50.2777C20.8683 50.4638 20.9121 50.9143 20.983 51.1506L23.5952 60.4878ZM47.471 7.33312C43.9804 7.86066 42.1257 17.1417 41.7014 19.8924L41.0527 25.1525L40.8799 28.0213L40.8793 35.4504L41.0064 37.7484L41.6756 43.4498C42.2231 46.8967 43.6154 53.6287 46.2537 55.759C46.8596 56.2387 47.2477 56.2827 48.0003 56.2418C44.6815 51.3393 43.6971 41.81 43.4916 35.88L43.4962 27.2674L43.7838 23.56C44.1967 19.1373 44.8055 14.5205 46.4245 10.3576L47.4844 8.04927C47.6675 7.67817 47.9716 7.36223 47.471 7.33312ZM41.1722 12.4817L35.2639 16.4915C31.5593 18.7291 27.1927 20.7988 23.0343 22.0877L21.8654 22.4535C21.419 22.5908 21.498 22.5831 21.3282 23.0193C19.7035 27.1911 19.4822 34.8127 21.0279 39.0804C21.3992 40.1054 21.5412 40.54 22.5619 41.0238C23.5545 41.4944 24.6428 41.8028 25.6675 42.1998L29.7954 44.037C32.7039 45.4664 35.5217 47.2014 38.1842 49.0481L41.0162 51.112C41.0653 51.149 41.1471 51.2331 41.2067 51.2373C39.8851 47.3508 39.2779 43.1468 38.9008 39.0713L38.6625 36.3288L38.6582 27.823L39.2345 21.3455C39.5378 19.0925 39.9462 16.8845 40.519 14.6837C40.5856 14.428 41.1953 12.5179 41.1722 12.4817ZM18.2516 22.9227L14.0816 22.9294C13.1354 22.9293 12.1511 22.8755 11.2101 22.9578C4.43512 23.5501 1.46285 31.9393 6.37809 36.7658C6.58468 36.9687 6.80323 37.1831 7.04354 37.3447C8.91434 38.7728 10.5055 38.89 12.7087 38.8911L17.4533 38.8914C17.8292 38.8911 18.2336 38.9205 18.6061 38.8805L18.5804 38.8191C18.5191 38.6637 18.508 38.4814 18.4773 38.3177L18.3018 37.4375C17.5449 33.488 17.5792 29.1444 18.3895 25.2078C18.5328 24.512 18.6751 23.6668 18.9889 23.0257L19.0627 22.9035L18.2516 22.9227ZM45.7221 27.8233L45.7093 35.0647C45.71 35.2825 45.6806 35.5518 45.7273 35.7607L45.7893 35.729C46.5702 35.3505 46.8181 35.4984 47.667 34.7058C49.7534 32.427 48.6054 28.939 45.7221 27.8233ZM9.2243 40.8205C10.6477 42.8065 12.8079 42.3175 15.0376 42.314C16.2711 42.312 17.9355 42.5487 19.0369 41.8524C19.2398 41.668 19.7397 41.2188 19.1962 41.161C18.478 41.0845 17.7114 41.1374 16.9864 41.1378L11.121 41.1181C10.4877 41.0843 9.83578 40.9897 9.2243 40.8205ZM21.2168 42.946L19.8981 43.9158L22.3124 43.8804L23.7122 43.8864L23.3743 43.711C23.1254 43.58 22.8073 43.5321 22.5426 43.4258C22.2244 43.298 21.5693 42.8343 21.2168 42.946ZM17.2004 44.407C15.7073 44.5558 14.2018 44.5338 12.7026 44.512L11.7064 44.4703L15.703 60.9746C16.0563 62.513 16.1454 63.763 17.417 64.8403C18.7315 65.8055 20.5119 65.7018 21.4859 64.303C22.2069 63.2673 21.7191 62.0808 21.416 60.9935L18.8648 51.7607L18.0972 49.5193C17.4901 47.8425 16.9017 46.131 17.6552 44.3833L17.2004 44.407ZM23.1944 45.9794L21.1371 46.08C20.5819 46.098 19.9061 46.0205 19.3835 46.2071C19.3077 46.9454 19.4534 47.3758 19.8502 48.0174C20.1988 48.2394 22.302 47.985 22.6837 47.8978C23.4938 47.7125 23.668 46.6134 23.5096 45.9687L23.1944 45.9794Z" fill="#6146C6"/>
<path d="M61.0322 51.9267C60.0769 51.9707 59.3871 50.9351 60.0467 50.1173C60.2682 49.8426 60.5913 49.6343 60.8701 49.4208L61.7685 48.672C67.7483 43.314 70.4204 34.7756 68.5399 26.9643C67.4254 22.3346 64.9288 18.1783 61.3437 15.0621C60.9769 14.7434 60.5276 14.4723 60.1952 14.1218C59.4567 13.343 60.0618 12.426 60.9565 12.2568C61.556 12.2113 62.0151 12.7045 62.44 13.0601L63.7108 14.1904C68.0567 18.3666 70.9771 24.3684 71.3517 30.43C71.8273 38.1266 68.5403 46.0408 62.5521 50.9301C62.0847 51.3117 61.631 51.7763 61.0322 51.9267Z" fill="#6146C6"/>
<path d="M59.3081 46.7913C58.3895 47.0523 57.5294 45.983 58.0436 45.1597C58.2319 44.8583 58.5908 44.6412 58.8643 44.421C66.1657 38.5429 66.128 25.8967 59.0683 19.8579C58.4696 19.3459 57.447 18.812 57.8542 17.858C58.0042 17.5069 58.2689 17.3179 58.6102 17.1826C59.5352 17.1547 60.0619 17.7353 60.7047 18.3335C68.4159 25.5097 68.649 38.4893 60.8381 45.6987C60.3777 46.1237 59.9009 46.5667 59.3081 46.7913Z" fill="#6146C6"/>
<path d="M56.6211 42.33C56.1197 42.3325 55.5483 42.0255 55.4327 41.5013C55.2294 40.5793 56.25 40.0683 56.7908 39.515C60.7082 35.5068 60.6228 28.085 56.4362 24.3638C55.8449 23.8383 54.789 23.1517 55.4972 22.2331C55.7152 21.9504 55.9863 21.8427 56.3281 21.7988C57.4697 21.8838 58.9106 23.671 59.5632 24.5784C63.074 29.4601 62.494 36.7494 58.3751 41.086C57.8593 41.6291 57.3588 42.1225 56.6211 42.33Z" fill="#6146C6"/>
<path d="M53.9725 37.7055C53.0241 37.995 52.1106 36.8283 52.7799 36.05C53.0723 35.71 53.5362 35.4937 53.8556 35.16C55.482 33.4611 55.2764 30.6177 53.6336 28.9924C53.1354 28.4994 52.2154 28.0477 52.5782 27.1958C52.725 26.8517 53.0046 26.6787 53.3349 26.543C54.1219 26.454 54.6619 26.8844 55.192 27.4151C57.1024 29.3275 57.875 32.343 56.6654 34.8564C56.1434 35.9411 55.1556 37.2891 53.9725 37.7055Z" fill="#6146C6"/>
</svg>
