<svg width="68" height="68" viewBox="0 0 68 68" fill="none" xmlns="http://www.w3.org/2000/svg">
<path d="M61.3834 28.4588L61.3819 53.8322C61.3799 56.2175 61.5376 58.6704 60.8934 60.9934C60.2041 63.4792 58.253 65.5069 55.6098 65.6825C54.8215 65.7348 54.0132 65.6965 53.2222 65.6962L15.7231 65.6975C14.8476 65.6979 14.0543 65.689 13.2023 65.4425C7.92746 63.9164 6.83594 57.1804 6.67811 52.4444C6.66794 52.1392 6.61318 51.8342 6.60454 51.5313L6.59771 3.31886C6.59883 3.11022 6.5882 2.88936 6.65183 2.68877L6.73712 2.45713C6.96221 1.98437 7.42142 1.96057 7.87272 1.94141L51.2366 1.94277C51.3671 1.94575 51.5125 1.94125 51.631 2.00206L51.664 2.01983C52.596 2.47282 52.2974 3.65005 52.2966 4.56907L52.2864 30.4806C52.2829 30.9256 52.2078 31.3587 52.2058 31.8031L52.2064 57.3703C54.9279 56.9023 54.556 51.0567 54.5535 49.1845L54.5658 30.6419C54.5737 30.3301 54.6507 30.0298 54.6591 29.7222L54.9999 22.3995L55.1372 20.7895C55.2303 19.8249 55.2971 18.7036 56.5764 19.0936C57.7911 19.4642 59.0617 19.3067 60.3134 19.3024C61.4508 19.2984 61.3858 20.3423 61.3859 21.1036L61.3834 28.4588ZM12.7724 3.94127L8.62689 3.94423C8.60015 4.14146 8.61758 4.35845 8.61817 4.55779L8.62624 49.0569C8.63125 53.6751 8.5732 62.8355 14.5097 63.6441C14.8953 63.6966 15.3071 63.6733 15.6964 63.6744L47.8855 63.6756L51.8331 63.6356C51.6547 63.5306 51.2366 62.7297 51.1394 62.5392C50.2423 60.7813 50.1861 59.1742 50.1834 57.2779L50.186 31.8673C50.1895 31.3221 50.2857 30.7791 50.2873 30.2253L50.2955 3.9424L13.3018 3.94098C13.1483 3.94094 12.9127 3.90804 12.7724 3.94127ZM57.0763 21.2149C57.066 22.7318 56.9084 24.2295 56.8048 25.7406L56.7603 27.562C56.7525 27.8555 56.6982 28.142 56.6891 28.4359L56.6782 30.1801C56.673 30.4013 56.6234 30.6174 56.6116 30.8382L56.5927 49.6912C56.5927 51.2 56.5924 52.7437 56.3616 54.2374C56.0257 56.4122 54.8025 59.2323 52.2775 59.4254C52.5592 61.0245 53.1898 62.9061 54.8583 63.5235C57.8612 64.363 59.1933 60.5538 59.3458 58.2004C59.3976 57.4014 59.3601 56.5801 59.3606 55.778L59.3592 21.3822C58.5824 21.3813 57.8398 21.3861 57.0763 21.2149Z" fill="#A4A4A6"/>
<path d="M44.3896 9.82293L14.704 9.82714C14.2936 9.827 13.8724 9.84499 13.4636 9.81049C12.61 9.73844 12.1986 8.77318 12.8375 8.13599C13.2691 7.70557 14.0277 7.83898 14.5931 7.84273L44.3171 7.84494C44.6806 7.84266 45.0538 7.80803 45.416 7.82756C46.2775 7.87399 46.7425 8.89495 46.1255 9.51555C45.6946 9.9488 44.9543 9.82694 44.3896 9.82293Z" fill="#A4A4A6"/>
<path d="M40.2589 27.4671L14.9581 27.4808C13.5259 27.5096 12.5093 27.3535 12.1412 25.6157L12.1285 25.5575C12.0593 25.2069 12.1303 24.7865 12.1354 24.4266L12.1451 16.9514C12.1455 16.0297 12.084 15.0651 12.165 14.1493C12.3455 12.1103 13.7562 12.1372 15.4461 12.1349L18.4779 12.1328L44.7136 12.1434C45.0411 12.1552 45.2443 12.1727 45.5316 12.316L45.671 12.3895C46.5606 12.9331 46.686 13.9069 46.6872 14.8472L46.691 23.8842C46.6911 24.522 46.7279 25.1882 46.6703 25.8226C46.5076 27.6138 44.8744 27.4658 43.6374 27.4666L40.2589 27.4671ZM14.2273 14.1174C14.0655 14.3036 14.1376 14.5488 14.1373 14.7518L14.1505 25.4716L44.5337 25.4796L44.6599 25.4227C44.7318 24.9779 44.6937 24.4803 44.694 24.0291L44.6755 14.1181L14.2273 14.1174Z" fill="#A4A4A6"/>
<path d="M44.9327 33.2396L13.6803 33.2369C12.6796 33.1992 12.3693 31.4295 13.8203 31.2207L44.2105 31.2405C44.4875 31.237 44.8234 31.1963 45.0861 31.2907C46.197 31.6898 46.0194 32.8907 44.9327 33.2396Z" fill="#A4A4A6"/>
<path d="M18.876 39.5093L14.1497 39.5232C13.9893 39.5255 13.8037 39.5439 13.6465 39.5122C13.3106 39.4444 12.6366 38.7512 12.7826 38.356C13.1268 37.4244 13.8724 37.5177 14.6768 37.5181L39.7542 37.5193L44.5254 37.5118C45.1742 37.5079 45.811 37.841 45.8122 38.5656C45.8136 39.5815 44.6093 39.5083 43.9599 39.5089L18.876 39.5093Z" fill="#A4A4A6"/>
<path d="M44.7959 45.7876L44.7666 45.7588C44.6318 45.7835 44.4292 45.7547 44.2877 45.7534L15.6077 45.7494C14.9988 45.7492 14.3322 45.8036 13.7307 45.7358C12.3922 45.5852 12.5202 43.8924 13.9048 43.7422L44.2809 43.7548C44.5187 43.7552 44.7986 43.7258 45.0291 43.7865C45.3912 43.882 45.9773 44.4738 45.8369 44.8983L45.8218 44.9402C45.6548 45.4367 45.3061 45.7024 44.7959 45.7876Z" fill="#A4A4A6"/>
<path d="M44.7933 52.0306L13.6631 52.0283C13.5337 52.0234 13.4539 52.0062 13.353 51.9226L13.0709 51.6732C12.3535 50.9103 13.0736 50.1439 13.8967 50.05L44.8002 50.0449C44.9046 50.0486 44.993 50.0646 45.0855 50.1146L45.1231 50.1356C46.148 50.6832 45.9124 51.9833 44.7933 52.0306Z" fill="#A4A4A6"/>
<path d="M44.8201 58.3094L14.4177 58.312C14.1816 58.3121 13.8963 58.3395 13.6667 58.2858L13.6298 58.2765C12.5023 58.0135 12.6067 56.4742 13.9239 56.3266L43.6904 56.3214C44.0972 56.3215 44.5127 56.3042 44.918 56.3333C45.9436 56.4072 46.2269 58.208 44.8201 58.3094Z" fill="#A4A4A6"/>
</svg>
