<svg width="109" height="109" viewBox="0 0 109 109" fill="none" xmlns="http://www.w3.org/2000/svg">
<path d="M19.3947 92.9922L89.4183 93.0131C89.5971 93.2042 89.6665 93.3158 89.464 93.5182L89.3878 93.646C88.5269 95.1219 84.0194 97.9757 82.5749 98.8243C77.4249 101.85 71.6585 104.344 65.7832 105.57L63.7041 105.915C49.7165 108.19 34.8978 105.189 23.3981 96.7406L20.3602 94.336C20.2889 94.2806 18.8098 93.4097 19.4794 93.167L19.5859 93.1404C19.8379 93.0128 20.8278 93.0529 21.1827 93.0154L19.3947 92.9922Z" fill="#F6F7EB"/>
<path d="M13.4562 86.6572L13.333 86.5357C13.3315 86.3886 12.5951 85.9166 12.4551 85.7518C9.42556 82.185 6.2385 75.6723 4.85759 71.3498L4.66358 70.7605C4.53546 70.4098 4.13186 69.1295 4.06983 68.7768L4.05469 68.6848C4.00062 68.4742 3.90869 68.229 3.88008 68.0191L3.69893 67.3076C3.4358 66.439 3.19235 65.3954 3.11876 64.5047L3.10449 64.3738C3.04878 64.2062 3.05917 64.3495 3.05542 64.1726L3.0561 64.081C2.79521 63.7981 2.74101 62.7609 2.74039 62.3247C2.66724 62.2508 2.66894 62.1605 2.67412 62.0586L2.6844 61.9521C2.64003 61.9049 2.44462 60.6037 2.46122 60.3554L2.39898 59.7168C2.10423 59.4702 2.21753 51.9409 2.27656 51.2097C2.3815 49.91 2.58668 48.6739 2.72246 47.3957L2.73764 47.2361C2.7964 47.0055 2.86499 46.7238 2.90152 46.4922L3.37753 44.0651C3.50349 43.5494 3.60883 43.0157 3.70419 42.4918L3.80224 41.9936C3.89521 41.7379 3.90752 41.4597 3.98757 41.1936L4.15107 40.5564C4.18653 40.4389 4.17144 40.5177 4.18858 40.4078L4.23062 40.1841C4.2544 40.1093 4.28436 40.0587 4.29685 39.9786L4.33479 39.7583C4.37679 39.652 4.37816 39.6591 4.37726 39.5454L4.43549 39.4656C4.43719 39.3847 4.43823 39.315 4.46186 39.2369L4.97112 37.4963C5.07395 37.2474 5.1065 36.972 5.20406 36.7265L6.44145 33.6643C7.03105 32.3126 7.86694 30.6985 8.62358 29.4331L8.87745 28.9984C9.24524 28.4506 9.72484 27.7142 9.98161 27.1043L10.2985 26.5605C10.4294 26.3068 10.5779 26.0443 10.7478 25.8139L11.7572 24.3188C12.0241 23.8813 12.4483 23.5037 12.681 23.0604L12.7217 22.9665C13.0201 22.5324 13.4308 22.1558 13.7186 21.7194L14.5704 20.692C15.0375 19.9173 16.4699 18.5524 17.2249 17.7842C18.123 16.8704 19.0217 15.9408 19.9827 15.0942L23.8311 12.07C26.1921 10.4547 28.552 8.90098 31.0771 7.54395L33.1577 6.50608C33.9916 6.08384 34.9683 5.6542 35.8586 5.37544L39.0952 4.36738C40.5084 3.85915 42.0324 3.69933 43.4746 3.2908L43.749 3.21792C44.2818 3.06066 44.9043 2.97338 45.4521 2.87747L53.3606 1.99116C66.96 1.58972 80.6966 7.12198 90.5513 16.4181L93.7493 19.6929C94.8953 20.9754 95.9508 22.321 96.9589 23.7144C97.2045 24.0538 97.4902 24.5592 97.7261 24.8468L97.8196 24.966C97.9277 25.2051 98.1034 25.3948 98.2334 25.63L98.2756 25.7075C98.3433 25.8105 98.3967 25.8501 98.4242 25.9766L98.4357 26.0534C98.5255 26.1514 98.6096 26.2448 98.6754 26.3611L98.768 26.519C98.8955 26.7666 99.0492 27.0542 99.2106 27.2765L99.4733 27.7297C99.71 28.1945 100.031 28.6243 100.244 29.1029L100.352 29.3266C100.461 29.4786 100.577 29.6734 100.655 29.8476L100.826 30.194C100.86 30.274 100.843 30.2421 100.885 30.3166L101.096 30.7143C101.142 30.809 101.186 30.8939 101.244 30.9819L101.309 31.0868C101.386 31.3148 101.281 31.0813 101.365 31.2631L101.918 32.3869C101.995 32.5905 102.105 32.784 102.188 32.9858L102.267 33.1167C102.278 33.2428 102.352 33.2794 102.374 33.3828L102.374 33.478C102.467 33.5915 102.468 33.6888 102.534 33.7973L102.587 33.8618C102.62 34.0652 102.762 34.4077 102.871 34.5946L103.066 35.0747C103.218 35.4819 103.398 35.8713 103.534 36.2875L103.758 36.8881C103.938 37.5876 104.275 38.6834 104.526 39.393L105.348 42.7387C105.479 43.2403 105.635 43.8377 105.669 44.3518L105.674 44.4419C105.836 44.6054 106.099 46.5284 106.1 46.9966C106.219 47.1173 106.575 50.0247 106.548 50.5625L106.536 50.6689C106.662 50.7967 106.658 52.0282 106.669 52.2922L106.687 54.0413C106.687 56.0844 106.73 58.1312 106.585 60.1692L106.526 60.6482C106.43 60.7433 106.313 62.0592 106.313 62.1916C106.229 62.2751 106.047 63.628 106.047 63.7351C105.953 63.829 105.568 65.6013 105.568 65.9704C105.476 66.0624 105.461 66.3209 105.461 66.4494L105.408 66.6623C105.297 66.773 105.089 67.9031 105.089 68.0461L104.982 68.3122C104.982 68.4936 104.911 68.6654 104.876 68.8445L104.822 68.8977C104.822 69.1621 104.669 69.584 104.583 69.8423L104.529 70.0019C104.405 70.3754 104.26 70.7466 104.184 71.133L104.05 71.4922C104.023 71.6512 104.098 71.4505 104.013 71.6495L103.864 72.0378C103.759 72.2135 103.691 72.4768 103.652 72.6765L103.598 72.7297C103.562 72.9192 103.476 73.072 103.439 73.2619L103.385 73.3152C103.374 73.3767 103.364 73.475 103.332 73.5281L103.199 73.8872C103.102 74.1137 103.181 73.8619 103.119 74.0603L103.092 74.1533C103.022 74.3179 103.051 74.1778 103.023 74.3192L103.013 74.3796C102.949 74.4437 102.964 74.4133 102.939 74.4952L101.706 77.2777C101.447 77.8742 101.1 78.4348 100.817 79.0179L99.4188 81.5381C98.8297 82.5878 97.3612 85.0092 96.5231 85.7771C96.1873 86.0845 95.765 86.2253 95.4295 86.5144C95.5761 86.508 95.693 86.5376 95.8327 86.5748C97.2912 86.7153 98.8872 88.2592 98.7706 89.7972L98.7258 90.0897C98.497 91.3828 97.1151 92.7118 95.8007 92.933L95.7179 92.9475C95.2813 93.0169 89.6535 93.0689 89.4183 92.9899L19.3947 92.9903L15.6636 92.9875C14.7452 92.9863 13.6873 93.0857 12.8 92.8368C9.33467 91.8654 9.6538 86.5891 13.4562 86.6572Z" fill="#D2F8EE"/>
<path d="M59.3681 42.3101L64.054 42.3096C65.3816 42.3115 66.8433 42.1883 68.1424 42.4584C68.2914 43.1461 68.3817 43.881 68.2058 44.5733L68.0451 44.6636C67.7004 44.8209 67.2008 44.7679 66.8293 44.7694L64.5669 44.7709C63.1961 44.7715 60.629 45.0201 59.3879 44.6404C59.0752 44.0013 59.2708 42.9894 59.3681 42.3101Z" fill="#393E41"/>
<path d="M59.2965 79.427C58.604 79.0636 58.9942 77.8752 59.1173 77.2636C60.523 77.0109 67.5599 76.9515 68.0289 77.2227C68.549 77.5238 68.5705 78.9865 68.3889 79.434L67.9037 79.545L63.3414 79.5613C61.9866 79.5611 60.6435 79.598 59.2965 79.427Z" fill="#393E41"/>
<path d="M61.0688 32.5918L66.9374 32.6007C68.4553 32.8023 68.5539 34.2272 68.5562 35.3696C68.559 36.6635 68.5117 37.9332 68.3331 39.2157L66.7087 39.2812L59.4436 39.2761C59.3016 38.8352 59.3019 38.3335 59.2205 37.876L59.1418 37.2782C58.9502 35.5963 58.8324 32.8002 61.0688 32.5918Z" fill="#FFD22B"/>
<path d="M59.2848 79.4277C60.6433 79.5987 61.9864 79.5619 63.3413 79.5621L67.9035 79.5567C68.1074 79.759 68.3216 79.927 68.3482 80.2331C68.536 82.398 68.477 84.5769 68.4621 86.7497L59.1301 86.7007L59.1156 86.6779C58.9542 85.6774 59.0421 84.5412 59.0407 83.5278L59.0455 81.2313C59.0511 80.6785 58.9857 79.9112 59.2848 79.4277Z" fill="#FFD22B"/>
<path d="M47.7623 37.2899L47.7563 37.2177C47.9154 35.5855 47.246 33.3029 49.3396 32.6736C49.795 32.5367 56.4176 32.515 56.7088 32.6872L57.0452 32.9469C57.5008 33.3131 57.8391 34.0178 57.9002 34.6002L57.9332 41.7161C57.5116 41.3783 48.956 41.4583 47.837 41.52L47.7623 37.2899Z" fill="#6146C6"/>
<path d="M79.0911 34.5612C80.6705 32.2222 82.4198 32.5777 84.9038 32.5826C86.8035 32.5862 88.8725 32.5042 89.2428 35.1049C89.3258 35.6876 89.2864 36.315 89.2866 36.9038L89.2907 86.6464C88.2347 86.8177 87.0542 86.7117 85.9749 86.7107L79.3212 86.7204C79.1698 86.4778 79.2688 51.3789 79.2686 47.0342L79.2641 39.8837C79.2618 38.1058 79.3203 36.3277 79.0911 34.5612Z" fill="#393E41"/>
<path d="M68.447 86.7068C68.6565 86.7517 68.9139 86.7998 69.0925 86.6904C69.2111 86.0751 69.1693 85.4113 69.1715 84.7859L69.1838 81.7541C69.1889 81.1984 69.3235 80.662 69.3337 80.118L69.2809 34.9054C69.0339 32.0952 71.7568 32.6036 73.7333 32.5906L75.7387 32.5791C77.6126 32.5747 78.0194 32.9242 79.0692 34.5618C79.3202 36.3283 79.2616 38.1064 79.264 39.8842L79.2684 47.0348C79.2687 51.3795 79.1697 86.4783 79.321 86.721L85.9747 86.7113C87.0541 86.7123 88.2346 86.8183 89.2967 86.647L95.8326 86.5844C97.2911 86.7149 98.8872 88.2588 98.7705 89.7967L98.7258 90.0892C98.4969 91.3823 97.1151 92.7114 95.8007 92.9325L95.7179 92.947C95.2812 93.0164 89.6535 93.0684 89.4182 92.9894L19.3947 92.9898L15.6635 92.9871C14.7451 92.9858 13.6872 93.0852 12.7999 92.8363C9.33462 91.8649 9.65374 86.5886 13.4561 86.6567C13.6311 86.668 13.845 86.6961 14.0241 86.6981L37.1529 86.6934C37.2328 86.6184 37.5236 86.6648 37.627 86.6697L47.7796 86.7081L47.7887 80.7629L57.9059 80.8148L57.8983 86.7083L59.1301 86.7023L68.447 86.7068Z" fill="#6146C6"/>
<path d="M37.153 86.6769L37.1119 48.0195C36.4606 51.1908 35.4824 54.2509 34.5148 57.3365L27.5669 78.3428C26.8559 80.2963 26.009 82.3411 23.7051 82.7684C20.7531 83.3158 16.7432 81.0793 16.2564 77.9554C15.8903 75.6059 17.3147 72.5997 18.0584 70.4139L28.7985 37.5319C30.6798 31.9646 32.4619 29.7712 38.0069 32.9733C39.562 33.8715 39.5188 33.7044 39.6915 35.6781C40.6303 35.5808 45.2424 35.2978 46.0224 35.7232C46.5895 36.0325 47.1433 36.3389 47.5114 36.8967L47.733 37.2886L47.7834 41.556C48.9558 41.457 57.5115 41.3769 57.8789 41.6939L57.8732 42.571C57.8661 43.0381 57.9507 43.5376 57.9545 44.0106L57.9426 76.8894C57.9413 77.5138 57.8859 78.2002 57.9541 78.818V80.7945L47.7888 80.7615L47.7796 86.7067L37.6271 86.6684C37.5236 86.6635 37.2328 86.617 37.153 86.6769Z" fill="#393E41"/>
<path d="M57.8734 42.5723C57.8663 43.0393 57.9509 43.5388 57.9547 44.0118L57.9428 76.8907C57.9415 77.5151 57.8861 78.2014 57.9543 78.8192L47.8151 78.7769C47.7566 78.5229 47.7885 78.2236 47.7881 77.9626L47.7817 43.5075L54.4365 43.542C55.3142 43.543 56.2369 43.6003 57.1097 43.5126C57.8304 43.4402 57.8795 43.235 57.8734 42.5723Z" fill="#6146C6"/>
</svg>
