<svg width="19" height="23" viewBox="0 0 19 23" fill="none" xmlns="http://www.w3.org/2000/svg">
<path d="M11.3063 21.725C14.0297 19.3281 18.875 14.4312 18.875 9.9375C18.875 7.4511 17.8873 5.06653 16.1291 3.30837C14.371 1.55022 11.9864 0.5625 9.5 0.5625C7.0136 0.5625 4.62903 1.55022 2.87087 3.30837C1.11272 5.06653 0.125 7.4511 0.125 9.9375C0.125 14.4312 4.96875 19.3281 7.69375 21.725C8.1908 22.1687 8.83375 22.4139 9.5 22.4139C10.1663 22.4139 10.8092 22.1687 11.3063 21.725ZM6.375 9.9375C6.375 9.1087 6.70424 8.31384 7.29029 7.72779C7.87634 7.14174 8.6712 6.8125 9.5 6.8125C10.3288 6.8125 11.1237 7.14174 11.7097 7.72779C12.2958 8.31384 12.625 9.1087 12.625 9.9375C12.625 10.7663 12.2958 11.5612 11.7097 12.1472C11.1237 12.7333 10.3288 13.0625 9.5 13.0625C8.6712 13.0625 7.87634 12.7333 7.29029 12.1472C6.70424 11.5612 6.375 10.7663 6.375 9.9375Z" fill="#A789E6"/>
</svg>
