<svg width="22" height="18" viewBox="0 0 22 18" fill="none" xmlns="http://www.w3.org/2000/svg">
<path d="M0.181885 9C1.12188 3.88 5.60788 0 10.9999 0C16.3919 0 20.8779 3.88 21.8189 9C20.8789 14.12 16.3919 18 10.9999 18C5.60788 18 1.12188 14.12 0.181885 9ZM10.9999 14C12.326 14 13.5977 13.4732 14.5354 12.5355C15.4731 11.5979 15.9999 10.3261 15.9999 9C15.9999 7.67392 15.4731 6.40215 14.5354 5.46447C13.5977 4.52678 12.326 4 10.9999 4C9.6738 4 8.40203 4.52678 7.46435 5.46447C6.52667 6.40215 5.99988 7.67392 5.99988 9C5.99988 10.3261 6.52667 11.5979 7.46435 12.5355C8.40203 13.4732 9.6738 14 10.9999 14ZM10.9999 12C10.2042 12 9.44117 11.6839 8.87856 11.1213C8.31596 10.5587 7.99988 9.79565 7.99988 9C7.99988 8.20435 8.31596 7.44129 8.87856 6.87868C9.44117 6.31607 10.2042 6 10.9999 6C11.7955 6 12.5586 6.31607 13.1212 6.87868C13.6838 7.44129 13.9999 8.20435 13.9999 9C13.9999 9.79565 13.6838 10.5587 13.1212 11.1213C12.5586 11.6839 11.7955 12 10.9999 12Z" fill="#6146C6"/>
</svg>
